<?xml version="1.0" encoding="iso-8859-1"?>
<!-- Uploaded to: SVG Repo, www.svgrepo.com, Generator: SVG Repo Mixer Tools -->
<svg height="800px" width="800px" version="1.1" id="Layer_1" xmlns="http://www.w3.org/2000/svg" xmlns:xlink="http://www.w3.org/1999/xlink" 
	 viewBox="0 0 511.999 511.999" xml:space="preserve">
<g>
	<path style="fill:#657694;" d="M74.535,377.399v-45.305v-82.78v-10.676H53.187c-11.742,0-21.347,9.603-21.347,21.348v105.075v1.667
		c0,11.741,9.605,21.348,21.347,21.348h21.348V377.399z"/>
	<g>
		<path style="fill:#FCD051;" d="M95.883,249.314H74.535v64.543v63.543h21.348c11.743,0,21.35-9.603,21.35-21.347v-85.396
			C117.233,258.917,107.626,249.314,95.883,249.314z"/>
		<path style="fill:#FCD051;" d="M245.325,458.626c-11.743,0-21.347,9.602-21.347,21.347c0,11.744,9.604,21.351,21.347,21.351
			h21.349c11.743,0,21.348-9.608,21.348-21.351c0-11.745-9.605-21.347-21.348-21.347H245.325z"/>
		<path style="fill:#FCD051;" d="M394.768,354.388c0,11.74,9.605,21.343,21.348,21.343h21.347v-64.542v-63.544h-21.347
			c-11.743,0-21.348,9.603-21.348,21.347V354.388z"/>
	</g>
	<g>
		<path style="fill:#657694;" d="M437.463,311.189v64.542v10.676h21.35c11.742,0,21.347-9.608,21.347-21.347V258.317
			c0-11.745-9.605-21.348-21.347-21.348h-21.35v10.676V311.189z"/>
		<path style="fill:#657694;" d="M255.999,57.64c36.727,0,70.878,11.04,99.303,29.978c19.435,12.944,34.157,15.888,44.105,5.942
			c9.948-9.95,9.608-27.567-22.486-47.894c-34.978-22.162-76.454-34.991-120.923-34.991c-44.467,0-85.943,12.829-120.922,34.99
			c-32.093,20.328-32.435,37.944-22.485,47.894c9.947,9.946,24.669,7.002,44.104-5.942C185.126,68.681,219.274,57.64,255.999,57.64z
			"/>
	</g>
</g>
<g>
	<path style="fill:#000003;" d="M437.463,331.89c-5.895,0-10.675,4.779-10.675,10.675v0.938c0,5.896,4.78,10.675,10.675,10.675
		c5.896,0,10.675-4.779,10.675-10.675v-0.938C448.138,336.669,443.359,331.89,437.463,331.89z"/>
	<path style="fill:#000003;" d="M469.293,228.065c-2.069-50.728-21.775-98.299-56.189-135.63c2.242-4.749,3.136-9.971,2.542-15.327
		c-1.547-13.952-12.653-27.565-33.012-40.459C344.793,12.672,301.002,0,255.999,0c-45.001,0-88.792,12.672-126.634,36.647
		C109.008,49.541,97.9,63.154,96.353,77.107c-0.595,5.357,0.301,10.579,2.542,15.327c-34.793,37.746-54.553,85.959-56.248,137.319
		c-12.493,4.369-21.482,16.268-21.482,30.232V365.06v1.667v55.79c0,37.567,30.564,68.13,68.132,68.13h125.842
		c4.408,12.426,16.272,21.351,30.187,21.351h21.349c17.658,0,32.023-14.367,32.023-32.026c0-17.657-14.366-32.022-32.023-32.022
		h-21.349c-13.915,0-25.779,8.923-30.186,21.347H89.296c-25.795,0-46.782-20.984-46.782-46.78v-25.603
		c3.34,1.184,6.931,1.835,10.672,1.835h21.348c5.896,0,10.675-4.779,10.675-10.675v-0.001h10.673
		c17.659,0,32.025-14.364,32.025-32.022v-85.396c0-17.655-14.367-32.018-32.025-32.018H85.21v-0.001
		c0-5.896-4.779-10.675-10.675-10.675H64.074c2.065-45.036,19.591-87.26,50.03-120.532c3.958,1.803,8.295,2.738,12.882,2.738
		c10.166,0,21.819-4.47,35.628-13.665c27.683-18.44,59.975-28.188,93.384-28.188c33.412,0,65.705,9.746,93.387,28.188
		c13.808,9.196,25.462,13.666,35.628,13.665c4.588,0,8.923-0.936,12.882-2.738c30.062,32.859,47.527,74.453,49.941,118.864h-10.375
		c-5.895,0-10.675,4.779-10.675,10.675v0.001h-10.672c-17.658,0-32.023,14.366-32.023,32.022v85.396
		c0,17.655,14.366,32.018,32.023,32.018h10.672v0.001c0,5.896,4.78,10.675,10.675,10.675h21.35
		c17.657,0,32.022-14.366,32.022-32.022V258.317C490.836,244.329,481.818,232.416,469.293,228.065z M245.325,469.302h21.349
		c5.886,0,10.673,4.787,10.673,10.672c0,5.887-4.787,10.676-10.673,10.676h-21.349c-5.885,0-10.672-4.789-10.672-10.676
		C234.653,474.088,239.44,469.302,245.325,469.302z M106.558,270.656v85.396c0,5.884-4.789,10.672-10.675,10.672H85.21v-52.868
		c0-5.896-4.779-10.675-10.675-10.675c-5.896,0-10.675,4.779-10.675,10.675V377.4H53.187c-5.884,0-10.672-4.788-10.672-10.673
		v-1.667V259.985c0-5.885,4.788-10.673,10.672-10.673H63.86v0.001c0,5.896,4.779,10.675,10.675,10.675h21.348
		C101.768,259.989,106.558,264.774,106.558,270.656z M385.013,88.818c-3.946,0.001-11.274-1.749-23.791-10.084
		c-31.198-20.783-67.584-31.769-105.223-31.769c-37.636,0-74.021,10.986-105.22,31.768c-12.517,8.336-19.847,10.085-23.793,10.085
		c-2.831,0-4.879-0.839-6.846-2.805c-2.657-2.658-2.738-5.012-2.567-6.551c0.361-3.257,3.347-12.191,23.217-24.777
		c34.42-21.808,74.258-33.334,115.208-33.334s80.789,11.526,115.213,33.333c19.87,12.585,22.854,21.519,23.216,24.776
		c0.171,1.539,0.09,3.893-2.566,6.55C389.893,87.978,387.846,88.818,385.013,88.818z M469.485,365.061
		c0,5.884-4.787,10.672-10.672,10.672h-10.675v-0.001c0-5.896-4.779-10.675-10.675-10.675h-21.347
		c-5.886,0-10.673-4.786-10.673-10.668v-85.396c0-5.885,4.787-10.672,10.673-10.672h10.672v52.869
		c0,5.896,4.78,10.675,10.675,10.675c5.896,0,10.675-4.779,10.675-10.675v-63.545h10.675c5.885,0,10.672,4.788,10.672,10.673
		V365.061z"/>
	<path style="fill:#000003;" d="M63.86,281.537v0.938c0,5.896,4.779,10.675,10.675,10.675c5.896,0,10.675-4.779,10.675-10.675
		v-0.938c0-5.896-4.779-10.675-10.675-10.675C68.639,270.861,63.86,275.641,63.86,281.537z"/>
</g>
</svg>