<svg width="1367" height="484" fill="none" xmlns="http://www.w3.org/2000/svg"><g filter="url(#a)"><path d="M126.318 338.5c-4.833 0-9.416-.25-13.75-.75-4.166-.5-8-1.083-11.5-1.75l-32.5-15 15-38 46.25 16c10.334 0 17.75-3.083 22.25-9.25 4.5-6.333 6.75-15.833 6.75-28.5V199l-5.5-25 2.75-15h47.25l.25 110.25c0 22.333-6.666 39.5-20 51.5-13.333 11.833-32.416 17.75-57.25 17.75zm367.955 0c-8 0-14.416-.75-19.25-2.25-4.666-1.333-8.083-2.667-10.25-4l-3.25-2.25v6.25h-45v-137l-5.25-25 5.25-15h45v40.25l-2.5 28.25 2.5 1.25c3.334-3.167 7.417-6.167 12.25-9 5-3 11.834-4.5 20.5-4.5 14.834 0 26.417 4.75 34.75 14.25 8.5 9.5 12.75 24.5 12.75 45 0 15.333-2.166 27.75-6.5 37.25-4.166 9.333-9.833 16.083-17 20.25-7.166 4.167-15.166 6.25-24 6.25zm-21.25-34.25c6.5 0 11.667-2.25 15.5-6.75 3.834-4.667 5.75-11.583 5.75-20.75 0-9-1.583-15.5-4.75-19.5-3.166-4.167-7.833-6.25-14-6.25l-14 5.25V301l2.5 1.75c1.834 1 4.834 1.5 9 1.5zm138.729 34.25c-12.167 0-22.917-1.25-32.25-3.75-9.333-2.5-16.583-5.083-21.75-7.75v-34.75c6.833 3 13.833 5.333 21 7 7.333 1.667 13.917 2.833 19.75 3.5 5.833.5 10 .75 12.5.75 2.833 0 4.833-.417 6-1.25 1.167-1 1.75-2.167 1.75-3.5 0-1.833-1.5-3.333-4.5-4.5-3-1.333-8.667-3-17-5a163.8 163.8 0 0 1-20-6.25c-6.333-2.667-11.583-6.333-15.75-11-4-4.667-6-10.917-6-18.75 0-9.667 2.25-17.25 6.75-22.75s10.917-9.333 19.25-11.5c8.333-2.333 18.083-3.5 29.25-3.5 6.333 0 12.25.333 17.75 1s9.417 1.167 11.75 1.5l23.25 15-11.25 26.75-43.75-9.5c-5.333 0-8 1.75-8 5.25 0 3.667 3.833 6.417 11.5 8.25a491.45 491.45 0 0 1 18.5 4.5c6.333 1.5 12.083 3.5 17.25 6 5.333 2.5 9.583 5.833 12.75 10 3.333 4.167 5 9.667 5 16.5 0 12.667-4.583 22.167-13.75 28.5-9 6.167-22.333 9.25-40 9.25zm76.25-2.5v-75.25l-5-27.5 7.75-15.25h37.25v10.75l2.25 1.5c1.833-1.667 4.333-3.583 7.5-5.75 3.333-2.333 7.333-4.417 12-6.25 4.667-1.833 9.917-2.75 15.75-2.75 15 0 26.25 4.25 33.75 12.75s11.25 20.417 11.25 35.75v31.75l5.25 25-5.25 15.25h-45v-65.5c0-6.333-1.417-11.167-4.25-14.5-2.667-3.5-6.917-5.25-12.75-5.25l-15.5 4.75V336h-45zm200.855 60.75c-4.166 0-8.916-.167-14.25-.5-5.333-.167-9.666-.417-13-.75l-30.5-14.75 12.5-32.5 39.25 12.75c22.167 0 33.25-9.25 33.25-27.75v-4.75l-2.5-1.25c-2.333 2.333-6.083 4.75-11.25 7.25-5 2.333-12.916 3.5-23.75 3.5-7.833 0-15.416-1.917-22.75-5.75-7.333-4-13.333-10.333-18-19-4.5-8.667-6.75-19.917-6.75-33.75 0-15.5 2.334-27.917 7-37.25 4.667-9.5 10.584-16.417 17.75-20.75 7.334-4.333 14.917-6.5 22.75-6.5 8.667 0 15.75 1.25 21.25 3.75 5.667 2.5 9.417 4.917 11.25 7.25v-8.25h45.25l2.5 15-2.75 15 .25 88c0 14.333-2.833 26-8.5 35-5.5 9-13.333 15.583-23.5 19.75-10 4.167-21.833 6.25-35.5 6.25zm8.5-94c3 0 5.75-.417 8.25-1.25s4.334-1.583 5.5-2.25V252.5c-.666-.5-1.916-1-3.75-1.5-1.833-.5-4.333-.75-7.5-.75-6.5 0-11.666 2.083-15.5 6.25-3.833 4.167-5.75 10.917-5.75 20.25 0 9.167 1.834 15.833 5.5 20 3.667 4 8.084 6 13.25 6zM1164.08 336v-75.25l-5-27.5 7.75-15.25h37.25v10.75l2.25 1.5c1.83-1.667 4.33-3.583 7.5-5.75 3.33-2.333 7.33-4.417 12-6.25 4.66-1.833 9.91-2.75 15.75-2.75 15 0 26.25 4.25 33.75 12.75s11.25 20.417 11.25 35.75v31.75l5.25 25-5.25 15.25h-45v-65.5c0-6.333-1.42-11.167-4.25-14.5-2.67-3.5-6.92-5.25-12.75-5.25l-15.5 4.75V336h-45z" fill="#090"/></g><circle cx="1060" cy="289" r="95" fill="#090"/><circle cx="1060" cy="289" r="62.7" fill="#fff"/><g clip-path="url(#b)"><path d="M1072.26 241.444c0 2.898-3.24 5.071-6.97 5.071h-10.96c-3.98 0-6.97-2.354-6.97-5.071v-11.592c0-2.717 3.24-5.072 6.97-5.072h10.96c3.73 0 6.97 2.355 6.97 5.072v11.592z" fill="#090"/><path d="M1047.36 229.852c0-2.717 3.48-5.072 7.22-5.072h10.46c3.74 0 7.22 1.992 7.22 4.89v10.868c0 2.898-.74 5.434-6.97 5.977" fill="#025122"/><path d="M1059.81 241.081v96.179l-24.41-19.018 19.18-78.428 5.23 1.267z" fill="#090"/><path d="M1059.81 241.081v96.179l24.41-19.018-19.18-78.428-5.23 1.267z" fill="#025122"/><path d="m1036.65 313.714 23.16 17.025v-8.875l-21.42-15.758-1.74 7.608zM1040.88 296.144l18.93 13.947v-8.875l-17.18-12.679-1.75 7.607zM1045.12 278.575l14.69 10.867v-8.875l-12.95-9.6-1.74 7.608zM1049.6 260.462l10.21 7.607v-8.875l-8.47-6.158-1.74 7.426z" fill="#025122"/></g><circle cx="306" cy="268" r="95" fill="#090"/><circle cx="306" cy="268" r="62.7" fill="#fff"/><g clip-path="url(#c)"><path d="M374.417 311.985c2.603 2.603 2.159 6.951-.606 9.716l-8.11 8.11c-2.949 2.95-7.276 3.047-9.716.606l-10.413-10.412c-2.44-2.44-2.159-6.952.606-9.717l8.11-8.11c2.765-2.765 7.277-3.046 9.717-.606l10.412 10.413z" fill="#090"/><path d="M345.572 320.005c-2.44-2.44-1.974-7.136.79-9.901l7.742-7.742c2.765-2.765 7.135-3.555 9.738-.952l9.762 9.761c2.603 2.603 4.327 5.434.207 10.53" fill="#025122"/><path d="m364.876 320.875 86.389 86.39-35.147.981-56.252-84.639 5.01-2.732z" fill="#090"/><path d="m364.875 320.875 86.39 86.39.981-35.147-84.639-56.252-2.732 5.009zM412.972 403.257l32.436-1.849-7.972-7.972-30.006 1.698 5.542 8.123z" fill="#025122"/><path d="m400.325 384.342 26.536-1.481-7.972-7.972-24.107 1.33 5.543 8.123zM387.677 365.428l20.637-1.114-7.972-7.972-18.207.962 5.542 8.124zM374.726 345.841l14.39-.725-7.971-7.971-11.799.735 5.38 7.961z" fill="#025122"/></g><path d="M305.5 264c2.929 0 5.792-.821 8.227-2.359 2.435-1.539 4.333-3.725 5.454-6.283a13.295 13.295 0 0 0 .842-8.089c-.571-2.716-1.981-5.211-4.052-7.168-2.071-1.958-4.71-3.292-7.582-3.832a15.603 15.603 0 0 0-8.556.797c-2.705 1.059-5.018 2.854-6.645 5.156-1.627 2.302-2.496 5.009-2.496 7.778 0 3.713 1.56 7.274 4.337 9.899 2.777 2.626 6.544 4.101 10.471 4.101zm0 4c-9.178 0-27.5 5.36-27.5 16v8h55v-8c0-10.64-18.322-16-27.5-16z" fill="#090"/><defs><clipPath id="b"><path fill="#fff" transform="translate(982.48 224.78)" d="M0 0h154.66v112.48H0z"/></clipPath><clipPath id="c"><path fill="#fff" transform="rotate(-45 585.242 -171.95)" d="M0 0h161.88v142.88H0z"/></clipPath><filter id="a" x="-4" y="0" width="1375" height="492" filterUnits="userSpaceOnUse" color-interpolation-filters="sRGB"><feFlood flood-opacity="0" result="BackgroundImageFix"/><feColorMatrix in="SourceAlpha" values="0 0 0 0 0 0 0 0 0 0 0 0 0 0 0 0 0 0 127 0" result="hardAlpha"/><feOffset dy="4"/><feGaussianBlur stdDeviation="2"/><feComposite in2="hardAlpha" operator="out"/><feColorMatrix values="0 0 0 0 0 0 0 0 0 0 0 0 0 0 0 0 0 0 0.25 0"/><feBlend in2="BackgroundImageFix" result="effect1_dropShadow_1259_783"/><feColorMatrix in="SourceAlpha" values="0 0 0 0 0 0 0 0 0 0 0 0 0 0 0 0 0 0 127 0" result="hardAlpha"/><feOffset dy="4"/><feGaussianBlur stdDeviation="2"/><feComposite in2="hardAlpha" operator="out"/><feColorMatrix values="0 0 0 0 0 0 0 0 0 0 0 0 0 0 0 0 0 0 0.25 0"/><feBlend in2="effect1_dropShadow_1259_783" result="effect2_dropShadow_1259_783"/><feBlend in="SourceGraphic" in2="effect2_dropShadow_1259_783" result="shape"/></filter></defs></svg>